<?xml version="1.0" encoding="iso-8859-1"?>
<!-- Uploaded to: SVG Repo, www.svgrepo.com, Generator: SVG Repo Mixer Tools -->
<svg fill="#000000" height="800px" width="800px" version="1.1" id="Layer_1" xmlns="http://www.w3.org/2000/svg" xmlns:xlink="http://www.w3.org/1999/xlink" 
	 viewBox="0 0 512.001 512.001" xml:space="preserve">
<g>
	<g>
		<path d="M253.748,118.887c-3.595-4.064-10.288-2.377-11.538,2.893l-3.612,15.229l-22.202-0.624
			c-5.692-0.16-10.714,3.698-12.028,9.237l-7.377,31.108c15.167-3.585,31.028,0.724,42.258,11.51
			c7.335,7.045,11.807,15.948,13.397,25.258l17.927-75.59L253.748,118.887z"/>
	</g>
</g>
<g>
	<g>
		<circle cx="106.471" cy="129.299" r="46.686"/>
	</g>
</g>
<g>
	<g>
		<path d="M164.468,300.628l60.338-62.822c9.152-9.528,8.846-24.671-0.681-33.821c-9.527-9.151-24.67-8.847-33.82,0.682
			l-46.275,48.178l-48.109-33.061l37.273,12.826l9.212-9.591c-1.743-13.687-12.491-25.034-26.815-26.934l-56.57-7.507
			c-17.061-2.264-32.728,9.732-34.992,26.793L0.278,393.366c-1.41,10.569,2.6,21.138,10.667,28.11s19.104,9.413,29.358,6.488
			l102.09-29.116c0.671-18.775,11.33-36.603,29.329-45.569l41.837-20.842l-10.459-4.205c-5.896-2.371-12.413-2.715-18.529-0.983
			l-57.098,16.187l1.938-14.6l-60.585-69.623l64.843,44.559C143.319,310.403,156.355,309.075,164.468,300.628z"/>
	</g>
</g>
<g>
	<g>
		<path d="M313.496,399.873l-37.158,18.511l21.376,8.595c14.722,5.917,31.418-1.233,37.323-15.917
			c1.019-2.533,1.641-5.126,1.913-7.713L313.496,399.873z"/>
	</g>
</g>
<g>
	<g>
		<path d="M470.582,225.926c-0.09-17.211-14.116-31.09-31.326-30.999l-57.059,0.299c-17.203,0.091-31.094,14.122-30.999,31.333
			l0.088,16.188l22.048,12.939l10.876-19.694l-10.743,45.087l-52.94-31.071c-11.393-6.686-26.049-2.872-32.737,8.522
			c-6.686,11.393-2.872,26.051,8.522,32.737c88.349,51.851,84.259,50.725,92.931,50.725c11.083,0,20.703-7.616,23.267-18.376
			l18.237-76.535l3.002,81.595c0.782,21.28-15.885,39.071-37.021,39.849c-12.969,0.477-20.023-4.755-30.644-10.995l-66.306-38.915
			l-117.227,56.399c-14.184,7.065-19.953,24.291-12.888,38.473c7.065,14.185,24.291,19.953,38.473,12.888l96.265-47.956
			c7.226,2.749,120.548,45.845,127.79,48.599c18.811,7.152,39.004-6.826,38.889-26.974l0.414,0.026L470.582,225.926z"/>
	</g>
</g>
<g>
	<g>
		<path d="M508.368,178.342c-3.483,0.266-6.804,0.197-9.748-5.805c-1.787-3.653-3-8.981-3.685-14.907
			c-2.414-20.334,0.467-35.302-4.592-45.576c-4.571-9.281-14.118-13.61-22.902-13.969c-7.334-0.396-14.828,1.753-21.224,5.124
			c-9.535-10.58-24.033-16.318-39.165-14.006c-23.907,3.652-40.327,25.993-36.675,49.899c3.652,23.907,25.993,40.327,49.9,36.675
			c22.303-3.406,38.083-23.08,37.137-45.113c0.037-6.022,8.997-9.515,13.288-6.655c7.978,5.319,7.339,27.829,10.378,36.923
			c1.549,4.636,4.905,12.53,8.858,17.432c6.087,7.517,12.629,8.764,19.692,6.563c1.469-0.457,2.483-1.88,2.362-3.478
			C511.849,179.593,510.227,178.201,508.368,178.342z"/>
	</g>
</g>
</svg>